<svg width="520" height="520" viewBox="80 80 520 520" role="img" xmlns="http://www.w3.org/2000/svg">
  <title>EquiGrant logomark</title>
  <desc>EG monogram with an integrated scales beam across the middle bar.</desc>
  <rect x="80" y="80" width="520" height="520" rx="100" fill="#111110"/>
  <g transform="translate(340 345)">
    <rect x="-190" y="-130" width="44" height="260" rx="9" fill="#ede9e3"/>
    <rect x="-190" y="-130" width="170" height="44" rx="9" fill="#ede9e3"/>
    <rect x="-190" y="86" width="170" height="44" rx="9" fill="#ede9e3"/>
    <rect x="-146" y="-22" width="150" height="44" rx="9" fill="#ede9e3"/>
    <rect x="-32" y="-110" width="12" height="92" rx="6" fill="#ede9e3"/>
    <circle cx="-26" cy="-110" r="10" fill="#ede9e3"/>
    <circle cx="-26" cy="-110" r="5" fill="#111110"/>
    <rect x="-90" y="-118" width="128" height="10" rx="5" fill="#ede9e3"/>
    <rect x="-86" y="-108" width="6" height="28" rx="3" fill="#9a958f"/>
    <rect x="-106" y="-80" width="46" height="14" rx="7" fill="#ede9e3"/>
    <rect x="28" y="-108" width="6" height="38" rx="3" fill="#9a958f"/>
    <rect x="8" y="-70" width="46" height="14" rx="7" fill="#ede9e3"/>
    <rect x="22" y="-130" width="158" height="44" rx="9" fill="#ede9e3"/>
    <rect x="22" y="86" width="158" height="44" rx="9" fill="#ede9e3"/>
    <rect x="136" y="-130" width="44" height="260" rx="9" fill="#ede9e3"/>
    <rect x="80" y="-22" width="100" height="44" rx="9" fill="#ede9e3"/>
    <rect x="22" y="-130" width="118" height="108" fill="#111110"/>
    <rect x="22" y="-130" width="158" height="44" rx="9" fill="#ede9e3"/>
  </g>
</svg>
